<?xml version="1.0" standalone="no"?>
<!DOCTYPE svg PUBLIC "-//W3C//DTD SVG 20010904//EN"
 "http://www.w3.org/TR/2001/REC-SVG-20010904/DTD/svg10.dtd">
<svg version="1.0" xmlns="http://www.w3.org/2000/svg"
 width="50" height="60" viewBox="0 0 702.000000 1024.000000"
 preserveAspectRatio="xMidYMid meet">

<g transform="translate(0.000000,1024.000000) scale(0.100000,-0.100000)"
fill="rgb(123 222 227)" stroke="none">
<path d="M4955 10224 c-338 -37 -725 -123 -1045 -232 -175 -60 -617 -248 -607
-259 2 -2 103 28 223 66 532 168 765 231 1024 275 247 43 351 51 650 51 317 0
420 -13 617 -76 522 -167 823 -565 917 -1210 38 -260 39 -678 1 -949 -50 -355
-157 -684 -345 -1061 -84 -167 -153 -283 -328 -554 -216 -332 -272 -427 -357
-600 -140 -287 -211 -541 -245 -875 -6 -58 -17 -310 -25 -560 -8 -250 -24
-554 -35 -675 -111 -1204 -344 -2058 -748 -2740 -117 -197 -247 -352 -372
-445 -64 -47 -182 -110 -207 -110 -25 0 -12 359 23 635 8 66 44 323 79 570 92
641 98 717 92 1145 -5 361 -11 425 -57 690 -59 335 -179 650 -335 885 -54 79
-224 277 -285 330 -33 29 -17 4 70 -105 258 -325 385 -659 466 -1225 13 -98
17 -194 16 -515 0 -357 -3 -416 -26 -611 -47 -404 -85 -615 -187 -1049 -85
-359 -101 -460 -103 -620 -1 -148 13 -218 60 -291 68 -108 230 -137 371 -66
156 79 407 334 610 619 407 572 672 1312 847 2368 70 424 97 678 141 1330 38
568 54 698 112 895 62 212 169 437 433 905 249 440 347 651 450 960 102 307
148 552 160 857 7 194 -2 600 -16 683 -3 19 -14 89 -25 155 -25 150 -79 358
-126 484 -192 515 -513 783 -1072 897 -205 42 -571 54 -816 28z"/>
<path d="M1425 9654 c-262 -12 -521 -72 -700 -162 -230 -115 -412 -315 -549
-602 -69 -146 -109 -268 -142 -434 -23 -121 -25 -152 -26 -401 0 -228 4 -290
21 -400 88 -538 271 -933 830 -1784 114 -174 237 -365 273 -426 219 -368 291
-621 236 -840 -5 -22 -48 -143 -95 -270 -90 -243 -180 -571 -224 -820 -22
-119 -24 -159 -24 -455 0 -425 20 -603 135 -1228 105 -569 147 -731 236 -904
135 -261 332 -304 456 -98 59 98 92 219 173 624 397 1991 973 3051 2019 3720
65 42 115 76 111 76 -4 0 -68 -34 -142 -75 -652 -364 -1153 -916 -1547 -1703
-279 -558 -489 -1164 -732 -2114 -44 -169 -82 -304 -85 -300 -22 23 -136 580
-173 842 -45 315 -51 422 -51 865 0 517 17 681 105 1031 38 154 66 228 188
509 95 216 105 259 105 425 -1 230 -40 377 -174 640 -92 182 -185 322 -441
661 -119 157 -248 334 -287 393 -261 389 -495 915 -585 1318 -45 198 -59 321
-59 508 -1 252 31 405 123 587 157 314 426 513 800 593 231 49 642 50 1173 3
288 -26 331 -27 922 -28 550 0 633 2 735 18 152 24 296 59 398 96 79 28 268
129 259 137 -2 2 -46 -16 -98 -40 -357 -169 -810 -216 -1429 -150 -166 17
-150 15 -650 88 -573 84 -859 110 -1085 100z"/>
</g>
</svg>
